{"asset":{"version":"2.0","generator":"Blockbench 4.11.0 glTF exporter"},"scenes":[{"nodes":[9],"name":"blockbench_export"}],"scene":0,"nodes":[{"translation":[0,15,0],"name":"Head"},{"translation":[0,15,0],"name":"Body"},{"translation":[3.125,13.75,0],"name":"RightArm"},{"translation":[-3.125,13.75,0],"name":"LeftArm"},{"translation":[0.06250000000000006,-6.875,-0.9375],"name":"RightLegFoot"},{"translation":[1.1875,7.5,0],"name":"RightLeg","children":[4]},{"translation":[-0.06250000000000006,-6.875,-0.9375],"name":"LeftLegFoot"},{"translation":[-1.1875,7.5,0],"name":"LeftLeg","children":[6]},{"name":"root","children":[0,1,2,3,5,7]},{"name":"root","mesh":0,"children":[8],"skin":0}],"bufferViews":[{"buffer":0,"byteOffset":0,"byteLength":4032,"target":34962,"byteStride":12},{"buffer":0,"byteOffset":4032,"byteLength":4032,"target":34962,"byteStride":12},{"buffer":0,"byteOffset":8064,"byteLength":2688,"target":34962,"byteStride":8},{"buffer":0,"byteOffset":10752,"byteLength":2688,"target":34962,"byteStride":8},{"buffer":0,"byteOffset":13440,"byteLength":5376,"target":34962,"byteStride":16},{"buffer":0,"byteOffset":18816,"byteLength":1008,"target":34963},{"buffer":0,"byteOffset":19824,"byteLength":576},{"buffer":0,"byteOffset":20400,"byteLength":20},{"buffer":0,"byteOffset":20420,"byteLength":80},{"buffer":0,"byteOffset":20500,"byteLength":36},{"buffer":0,"byteOffset":20536,"byteLength":108},{"buffer":0,"byteOffset":20644,"byteLength":20},{"buffer":0,"byteOffset":20664,"byteLength":80},{"buffer":0,"byteOffset":20744,"byteLength":36},{"buffer":0,"byteOffset":20780,"byteLength":144},{"buffer":0,"byteOffset":20924,"byteLength":36},{"buffer":0,"byteOffset":20960,"byteLength":144},{"buffer":0,"byteOffset":21104,"byteLength":36},{"buffer":0,"byteOffset":21140,"byteLength":144},{"buffer":0,"byteOffset":21284,"byteLength":36},{"buffer":0,"byteOffset":21320,"byteLength":144},{"buffer":0,"byteOffset":21464,"byteLength":36},{"buffer":0,"byteOffset":21500,"byteLength":144},{"buffer":0,"byteOffset":21644,"byteLength":36},{"buffer":0,"byteOffset":21680,"byteLength":144}],"buffers":[{"byteLength":21824,"uri":"data:application/octet-stream;base64,"}],"accessors":[{"bufferView":0,"componentType":5126,"count":336,"max":[4.53125,20.3125,2.8125],"min":[-4.53125,-0.15625,-2.8125],"type":"VEC3"},{"bufferView":1,"componentType":5126,"count":336,"max":[1,1,1],"min":[-1,-1,-1],"type":"VEC3"},{"bufferView":2,"componentType":5126,"count":336,"max":[0.999755859375,1],"min":[0.000244140625,0.000244140625],"type":"VEC2"},{"bufferView":3,"componentType":5123,"count":336,"max":[0,8,0,0],"min":[0,1,0,0],"type":"VEC4"},{"bufferView":4,"componentType":5126,"count":336,"max":[0,1,0,0],"min":[0,1,0,0],"type":"VEC4"},{"bufferView":5,"componentType":5123,"count":504,"max":[335],"min":[0],"type":"SCALAR"},{"bufferView":6,"componentType":5126,"count":9,"max":[1,0,0,0,0,1,0,0,0,0,1,0,3.125,0,0.9375,1],"min":[1,0,0,0,0,1,0,0,0,0,1,0,-3.125,-15,0,1],"type":"MAT4"},{"bufferView":7,"componentType":5126,"count":5,"max":[2],"min":[0],"type":"SCALAR"},{"bufferView":8,"componentType":5126,"count":5,"max":[0,0,0,1],"min":[0,0,0,1],"type":"VEC4"},{"bufferView":9,"componentType":5126,"count":9,"max":[2],"min":[0],"type":"SCALAR"},{"bufferView":10,"componentType":5126,"count":9,"max":[0,0,0],"min":[0,-1.25,0],"type":"VEC3"},{"bufferView":11,"componentType":5126,"count":5,"max":[2],"min":[0],"type":"SCALAR"},{"bufferView":12,"componentType":5126,"count":5,"max":[0,0,0,1],"min":[0,0,0,1],"type":"VEC4"},{"bufferView":13,"componentType":5126,"count":9,"max":[2],"min":[0],"type":"SCALAR"},{"bufferView":14,"componentType":5126,"count":9,"max":[0.4617486000061035,0,0,1],"min":[-0.4617486000061035,0,0,0.8870108127593994],"type":"VEC4"},{"bufferView":15,"componentType":5126,"count":9,"max":[2],"min":[0],"type":"SCALAR"},{"bufferView":16,"componentType":5126,"count":9,"max":[0.4617486000061035,0,0,1],"min":[-0.4617486000061035,0,0,0.8870108127593994],"type":"VEC4"},{"bufferView":17,"componentType":5126,"count":9,"max":[2],"min":[0],"type":"SCALAR"},{"bufferView":18,"componentType":5126,"count":9,"max":[0.4226182699203491,0,0,1],"min":[-0.4226182699203491,0,0,0.9063078165054321],"type":"VEC4"},{"bufferView":19,"componentType":5126,"count":9,"max":[2],"min":[0],"type":"SCALAR"},{"bufferView":20,"componentType":5126,"count":9,"max":[0.15212339162826538,0,0,1],"min":[-0.08715574443340302,0,0,0.9883615374565125],"type":"VEC4"},{"bufferView":21,"componentType":5126,"count":9,"max":[2],"min":[0],"type":"SCALAR"},{"bufferView":22,"componentType":5126,"count":9,"max":[0.4226182699203491,0,0,1],"min":[-0.4226182699203491,0,0,0.9063078165054321],"type":"VEC4"},{"bufferView":23,"componentType":5126,"count":9,"max":[2],"min":[0],"type":"SCALAR"},{"bufferView":24,"componentType":5126,"count":9,"max":[0.15212339162826538,0,0,1],"min":[-0.08715574443340302,0,0,0.9883615374565125],"type":"VEC4"}],"materials":[{"pbrMetallicRoughness":{"metallicFactor":0,"roughnessFactor":1,"baseColorTexture":{"index":0}},"alphaMode":"MASK","alphaCutoff":0.05,"doubleSided":true}],"textures":[{"sampler":0,"source":0,"name":"artifact_key"}],"samplers":[{"magFilter":9728,"minFilter":9728,"wrapS":33071,"wrapT":33071}],"images":[{"mimeType":"image/png"}],"meshes":[{"primitives":[{"mode":4,"attributes":{"POSITION":0,"NORMAL":1,"TEXCOORD_0":2,"JOINTS_0":3,"WEIGHTS_0":4},"indices":5,"material":0}]}],"skins":[{"inverseBindMatrices":6,"joints":[8,0,1,2,3,5,4,7,6],"skeleton":8}],"animations":[{"name":"animation","samplers":[{"input":7,"output":8,"interpolation":"LINEAR"},{"input":9,"output":10,"interpolation":"LINEAR"},{"input":11,"output":12,"interpolation":"LINEAR"},{"input":13,"output":14,"interpolation":"LINEAR"},{"input":15,"output":16,"interpolation":"LINEAR"},{"input":17,"output":18,"interpolation":"LINEAR"},{"input":19,"output":20,"interpolation":"LINEAR"},{"input":21,"output":22,"interpolation":"LINEAR"},{"input":23,"output":24,"interpolation":"LINEAR"}],"channels":[{"sampler":0,"target":{"node":8,"path":"rotation"}},{"sampler":1,"target":{"node":8,"path":"translation"}},{"sampler":2,"target":{"node":1,"path":"rotation"}},{"sampler":3,"target":{"node":2,"path":"rotation"}},{"sampler":4,"target":{"node":3,"path":"rotation"}},{"sampler":5,"target":{"node":5,"path":"rotation"}},{"sampler":6,"target":{"node":4,"path":"rotation"}},{"sampler":7,"target":{"node":7,"path":"rotation"}},{"sampler":8,"target":{"node":6,"path":"rotation"}}]}]}