# Made in Blockbench 4.11.0
mtllib artifact_energy_burst.mtl

o cube
v -0.0026808834983118868 -0.0035959000564917964 -0.29491633651719124
v 0.0312500330644266 0.09724501715285364 -0.03585515405647349
v -0.09375003858223437 -0.027279252392441646 -0.04674957384553399
v -0.07544412201949562 0.0735616648169031 0.024811608615183695
v 0.07544412201949562 -0.0735616648169031 -0.024811608615183695
v 0.09375003858223437 0.027279252392441646 0.04674957384553399
v -0.0312500330644266 -0.09724501715285364 0.03585515405647349
v -0.01294411650168786 0.0035959000564911095 0.10741633651719118
vt 0.2860256421959007 0.43057115432406445
vt 0.375 0.47140035157674287
vt 0.375 0.75
vt 0.25 0.5348154078512275
vt 0.125 0.4375
vt 0.125 0.5625
vt 0 0.5625
vt 0 0.4375
vt 0.1875 1
vt 0 0.773051536902591
vt 0.058957081801000205 0.6628287511207475
vt 0.1875 0.7177236899856587
vt 0.5625 0.625
vt 0.5625 0.75
vt 0.4375 0.75
vt 0.4375 0.625
vt 0.35880872139657044 0.8125
vt 0.5757129223251399 0.9752392840486395
vt 0.2897815808614067 0.9752392840486395
vt 0.25 0.8623564975822461
vt 0.5625 0.4375
vt 0.5625 0.5625
vt 0.4375 0.5625
vt 0.4375 0.4375
vn -0.3643039138362755 0.8829896628599911 -0.2959930972944654
vn 0.500000044142462 -0.5597261180832959 0.6608378232160599
vn 0.8563353697883995 0.43337250567892915 -0.2808522846104895
vn -0.8535532406713779 -0.18946681868760432 0.4853341013732576
vn -0.23802188422913428 -0.9547240825351622 -0.17845870350141455
vn 0.1464473325019099 0.8067273376747579 0.5724894596857415
usemtl m_95548f01-4217-d191-239e-b51166a4af9d
f 4/1/1 2/2/1 1/3/1 3/4/1
f 7/5/2 5/6/2 6/7/2 8/8/2
f 1/9/3 2/10/3 6/11/3 5/12/3
f 4/13/4 3/14/4 7/15/4 8/16/4
f 3/17/5 1/18/5 5/19/5 7/20/5
f 8/21/6 6/22/6 2/23/6 4/24/6