# Made in Blockbench 4.11.0
mtllib artifact_3door_slice.mtl

o 2
v 0.5 2.5 0.0625
v 0.5 2.5 -0.0625
v 0.5 -0.6875 0.0625
v 0.5 -0.6875 -0.0625
v -0.5 2.5 -0.0625
v -0.5 2.5 0.0625
v -0.5 -0.6875 -0.0625
v -0.5 -0.6875 0.0625
vt 0 1
vt 0.125 1
vt 0.125 0.6015625
vt 0 0.6015625
vt 0.25 0.6015625
vt 0.265625 0.6015625
vt 0.265625 0.203125
vt 0.25 0.203125
vt 0.125 1
vt 0.25 1
vt 0.25 0.6015625
vt 0.125 0.6015625
vt 0.265625 0.6015625
vt 0.28125 0.6015625
vt 0.28125 0.203125
vt 0.265625 0.203125
vt 0.46875 0.5859375
vt 0.34375 0.5859375
vt 0.34375 0.6015625
vt 0.46875 0.6015625
vt 0.46875 0.5859375
vt 0.34375 0.5859375
vt 0.34375 0.5703125
vt 0.46875 0.5703125
vn 0 0 -1
vn 1 0 0
vn 0 0 1
vn -1 0 0
vn 0 1 0
vn 0 -1 0
usemtl m_9a21f481-652f-5c51-6cd0-40fba0d4a16b
f 4/4/1 7/3/1 5/2/1 2/1/1
f 3/8/2 4/7/2 2/6/2 1/5/2
f 8/12/3 3/11/3 1/10/3 6/9/3
f 7/16/4 8/15/4 6/14/4 5/13/4
f 6/20/5 1/19/5 2/18/5 5/17/5
f 7/24/6 4/23/6 3/22/6 8/21/6