# Made in Blockbench 4.11.0
mtllib artifact_3door_1.mtl

o 2
v 0.5 -0.6875 -0.0625
v -0.5 -0.6875 -0.0625
v -0.5 2.5 -0.0625
v 0.5 2.5 -0.0625
v 0.5 -0.6875 0.0625
v 0.5 2.5 0.0625
v -0.5 -0.6875 0.0625
v -0.5 2.5 0.0625
vt 0 0.203125
vt 0.25 0.203125
vt 0.25 1
vt 0 1
vt 0.53125 0.2031249999999999
vt 0.5625 0.2031249999999999
vt 0.5625 1
vt 0.53125 1
vt 0.265625 0.203125
vt 0.515625 0.203125
vt 0.515625 1
vt 0.265625 1
vt 0.578125 0.203125
vt 0.609375 0.203125
vt 0.609375 1
vt 0.578125 1
vt 0.875 1
vt 0.625 1
vt 0.625 0.96875
vt 0.875 0.96875
vt 0.875 0.9375
vt 0.625 0.9375
vt 0.625 0.96875
vt 0.875 0.96875
vn 0 0 -1
vn 1 0 0
vn 0 0 1
vn -1 0 0
vn 0 1 0
vn 0 -1 0
usemtl m_ac694c54-acfe-7cf8-14a2-24fc31affe03
f 1/1/1 2/2/1 3/3/1 4/4/1
f 5/5/2 1/6/2 4/7/2 6/8/2
f 7/9/3 5/10/3 6/11/3 8/12/3
f 2/13/4 7/14/4 8/15/4 3/16/4
f 8/17/5 6/18/5 4/19/5 3/20/5
f 2/21/6 1/22/6 5/23/6 7/24/6